<mxfile host="65bd71144e">
    <diagram id="kZiEShBgHargP58c7nKh" name="Page-1">
        <mxGraphModel dx="498" dy="523" grid="1" gridSize="10" guides="1" tooltips="1" connect="1" arrows="1" fold="1" page="1" pageScale="1" pageWidth="1169" pageHeight="827" math="0" shadow="0">
            <root>
                <mxCell id="0"/>
                <mxCell id="1" parent="0"/>
                <mxCell id="2" value="Client" style="shape=umlActor;verticalLabelPosition=bottom;verticalAlign=top;html=1;" vertex="1" parent="1">
                    <mxGeometry x="50" y="185" width="30" height="60" as="geometry"/>
                </mxCell>
                <mxCell id="4" value="Bitnano" style="html=1;align=left;horizontal=1;verticalAlign=top;" vertex="1" parent="1">
                    <mxGeometry x="120" y="40" width="430" height="350" as="geometry"/>
                </mxCell>
                <mxCell id="5" value="Miner" style="shape=umlActor;verticalLabelPosition=bottom;verticalAlign=top;html=1;" vertex="1" parent="1">
                    <mxGeometry x="584" y="185" width="30" height="60" as="geometry"/>
                </mxCell>
                <mxCell id="6" value="Client" style="html=1;horizontal=1;verticalAlign=top;align=left;" vertex="1" parent="1">
                    <mxGeometry x="130" y="70" width="200" height="310" as="geometry"/>
                </mxCell>
                <mxCell id="7" value="Core" style="html=1;horizontal=1;verticalAlign=top;align=left;" vertex="1" parent="1">
                    <mxGeometry x="340" y="70" width="200" height="310" as="geometry"/>
                </mxCell>
                <mxCell id="8" value="Sign Tx" style="ellipse;whiteSpace=wrap;html=1;" vertex="1" parent="1">
                    <mxGeometry x="160" y="100" width="140" height="70" as="geometry"/>
                </mxCell>
                <mxCell id="9" value="Create Wallet" style="ellipse;whiteSpace=wrap;html=1;" vertex="1" parent="1">
                    <mxGeometry x="160" y="190" width="140" height="70" as="geometry"/>
                </mxCell>
                <mxCell id="10" value="Access funds" style="ellipse;whiteSpace=wrap;html=1;" vertex="1" parent="1">
                    <mxGeometry x="160" y="280" width="140" height="70" as="geometry"/>
                </mxCell>
                <mxCell id="12" value="Mine blocks" style="ellipse;whiteSpace=wrap;html=1;" vertex="1" parent="1">
                    <mxGeometry x="370" y="100" width="140" height="70" as="geometry"/>
                </mxCell>
                <mxCell id="13" value="Get Block rewards" style="ellipse;whiteSpace=wrap;html=1;" vertex="1" parent="1">
                    <mxGeometry x="370" y="195" width="140" height="70" as="geometry"/>
                </mxCell>
                <mxCell id="14" value="Get Block rewards" style="ellipse;whiteSpace=wrap;html=1;" vertex="1" parent="1">
                    <mxGeometry x="370" y="280" width="140" height="70" as="geometry"/>
                </mxCell>
                <mxCell id="uOVe1ZgVzjmWLxDib413-22" style="edgeStyle=none;html=1;" edge="1" parent="1" source="2" target="8">
                    <mxGeometry relative="1" as="geometry"/>
                </mxCell>
                <mxCell id="uOVe1ZgVzjmWLxDib413-23" style="edgeStyle=none;html=1;" edge="1" parent="1" source="5" target="12">
                    <mxGeometry relative="1" as="geometry"/>
                </mxCell>
                <mxCell id="uOVe1ZgVzjmWLxDib413-24" style="edgeStyle=none;html=1;" edge="1" parent="1" source="5" target="14">
                    <mxGeometry relative="1" as="geometry"/>
                </mxCell>
                <mxCell id="uOVe1ZgVzjmWLxDib413-21" style="edgeStyle=none;html=1;" edge="1" parent="1" source="2" target="10">
                    <mxGeometry relative="1" as="geometry"/>
                </mxCell>
                <mxCell id="uOVe1ZgVzjmWLxDib413-25" style="edgeStyle=none;html=1;" edge="1" parent="1" source="2" target="9">
                    <mxGeometry relative="1" as="geometry"/>
                </mxCell>
                <mxCell id="uOVe1ZgVzjmWLxDib413-26" style="edgeStyle=none;html=1;" edge="1" parent="1" source="5" target="13">
                    <mxGeometry relative="1" as="geometry"/>
                </mxCell>
            </root>
        </mxGraphModel>
    </diagram>
</mxfile>